# xmcd
#
# Track frame offsets: 
#        150
#        14418
#        27290
#        42622
#        61220
#        75425
#        90288
#        106861
#        122329
#        132623
#        146029
#        160678
#        180814
#
# Disc length: 2526 seconds
#
# Revision: 0
# Processed by: cddbd v1.5.2PL0 Copyright (c) Steve Scherf et al.
# Submitted via: ExactAudioCopy v0.99pb3
#
DISCID=9909dc0d
DTITLE=Two Cow Garage - Speaking in Cursive
DYEAR=2008
DGENRE=Alt. Country
TTITLE0=Your Humble Narrator
TTITLE1=Brass Ring
TTITLE2=Folksinger's Heart
TTITLE3=Bastards and Bridesmaids
TTITLE4=The Heart and the Crown
TTITLE5=Wooden Teeth
TTITLE6=Skinny Legged Girl
TTITLE7=Glass City
TTITLE8=Not Your Friends
TTITLE9=Swingset Assassin
TTITLE10=Funeral Drag
TTITLE11=Sadie Mae
TTITLE12=Swallowed by the Sea
EXTD=
EXTT0=
EXTT1=
EXTT2=
EXTT3=
EXTT4=
EXTT5=
EXTT6=
EXTT7=
EXTT8=
EXTT9=
EXTT10=
EXTT11=
EXTT12=
PLAYORDER=
